<svg xmlns="http://www.w3.org/2000/svg" version="1.1" class="w100 h-auto" width="660" height="400" viewBox="0 0 585 395"><g></g><g class="chart-area" font-family="sans-serif" transform="translate(100, 20)"><g transform="translate(0,300)" fill="none" font-size="10" font-family="sans-serif" text-anchor="middle"><path class="domain" stroke="currentColor" d="M0,6V0H410V6"></path><g class="tick" opacity="1" transform="translate(36.53829061299387,0)"><line stroke="currentColor" y2="6"></line><text fill="currentColor" y="9" dy="0.71em" style="font-size: 12px;">2010</text></g><g class="tick" opacity="1" transform="translate(88.0263346522163,0)"><line stroke="currentColor" y2="6"></line><text fill="currentColor" y="9" dy="0.71em" style="font-size: 12px;">2012</text></g><g class="tick" opacity="1" transform="translate(139.58491025861574,0)"><line stroke="currentColor" y2="6"></line><text fill="currentColor" y="9" dy="0.71em" style="font-size: 12px;">2014</text></g><g class="tick" opacity="1" transform="translate(191.07295429783818,0)"><line stroke="currentColor" y2="6"></line><text fill="currentColor" y="9" dy="0.71em" style="font-size: 12px;">2016</text></g><g class="tick" opacity="1" transform="translate(242.63152990423762,0)"><line stroke="currentColor" y2="6"></line><text fill="currentColor" y="9" dy="0.71em" style="font-size: 12px;">2018</text></g><g class="tick" opacity="1" transform="translate(294.11957394346007,0)"><line stroke="currentColor" y2="6"></line><text fill="currentColor" y="9" dy="0.71em" style="font-size: 12px;">2020</text></g><g class="tick" opacity="1" transform="translate(345.67814954985954,0)"><line stroke="currentColor" y2="6"></line><text fill="currentColor" y="9" dy="0.71em" style="font-size: 12px;">2022</text></g><g class="tick" opacity="1" transform="translate(397.16619358908196,0)"><line stroke="currentColor" y2="6"></line><text fill="currentColor" y="9" dy="0.71em" style="font-size: 12px;">2024</text></g></g><g class="grid-lines" transform="translate(0,300)" fill="none" font-size="10" font-family="sans-serif" text-anchor="middle"><path class="domain" stroke="currentColor" d="M0,-300V0H410V-300"></path><g class="tick" opacity="1" transform="translate(36.53829061299387,0)"><line stroke="currentColor" y2="-300" style="stroke: #ccc; fill: none;"></line></g><g class="tick" opacity="1" transform="translate(88.0263346522163,0)"><line stroke="currentColor" y2="-300" style="stroke: #ccc; fill: none;"></line></g><g class="tick" opacity="1" transform="translate(139.58491025861574,0)"><line stroke="currentColor" y2="-300" style="stroke: #ccc; fill: none;"></line></g><g class="tick" opacity="1" transform="translate(191.07295429783818,0)"><line stroke="currentColor" y2="-300" style="stroke: #ccc; fill: none;"></line></g><g class="tick" opacity="1" transform="translate(242.63152990423762,0)"><line stroke="currentColor" y2="-300" style="stroke: #ccc; fill: none;"></line></g><g class="tick" opacity="1" transform="translate(294.11957394346007,0)"><line stroke="currentColor" y2="-300" style="stroke: #ccc; fill: none;"></line></g><g class="tick" opacity="1" transform="translate(345.67814954985954,0)"><line stroke="currentColor" y2="-300" style="stroke: #ccc; fill: none;"></line></g><g class="tick" opacity="1" transform="translate(397.16619358908196,0)"><line stroke="currentColor" y2="-300" style="stroke: #ccc; fill: none;"></line></g></g><text x="205" y="360" class="axis-label x-axis-label" style="text-anchor: middle; font-weight: bold;">Year</text><g fill="none" font-size="10" font-family="sans-serif" text-anchor="end"><path class="domain" stroke="currentColor" d="M-6,300H0V0H-6"></path><g class="tick" opacity="1" transform="translate(0,300)"><line stroke="currentColor" x2="-6"></line><text fill="currentColor" x="-9" dy="0.32em" style="font-size: 12px;">0.00%</text></g><g class="tick" opacity="1" transform="translate(0,266.66666666666663)"><line stroke="currentColor" x2="-6"></line><text fill="currentColor" x="-9" dy="0.32em" style="font-size: 12px;">2.00%</text></g><g class="tick" opacity="1" transform="translate(0,233.33333333333334)"><line stroke="currentColor" x2="-6"></line><text fill="currentColor" x="-9" dy="0.32em" style="font-size: 12px;">4.00%</text></g><g class="tick" opacity="1" transform="translate(0,200.00000000000003)"><line stroke="currentColor" x2="-6"></line><text fill="currentColor" x="-9" dy="0.32em" style="font-size: 12px;">6.00%</text></g><g class="tick" opacity="1" transform="translate(0,166.66666666666669)"><line stroke="currentColor" x2="-6"></line><text fill="currentColor" x="-9" dy="0.32em" style="font-size: 12px;">8.00%</text></g><g class="tick" opacity="1" transform="translate(0,133.33333333333331)"><line stroke="currentColor" x2="-6"></line><text fill="currentColor" x="-9" dy="0.32em" style="font-size: 12px;">10.00%</text></g><g class="tick" opacity="1" transform="translate(0,100.00000000000001)"><line stroke="currentColor" x2="-6"></line><text fill="currentColor" x="-9" dy="0.32em" style="font-size: 12px;">12.00%</text></g><g class="tick" opacity="1" transform="translate(0,66.66666666666663)"><line stroke="currentColor" x2="-6"></line><text fill="currentColor" x="-9" dy="0.32em" style="font-size: 12px;">14.00%</text></g><g class="tick" opacity="1" transform="translate(0,33.333333333333314)"><line stroke="currentColor" x2="-6"></line><text fill="currentColor" x="-9" dy="0.32em" style="font-size: 12px;">16.00%</text></g><g class="tick" opacity="1" transform="translate(0,0)"><line stroke="currentColor" x2="-6"></line><text fill="currentColor" x="-9" dy="0.32em" style="font-size: 12px;">18.00%</text></g></g><g class="grid-lines" fill="none" font-size="10" font-family="sans-serif" text-anchor="end"><path class="domain" stroke="currentColor" d="M410,300H0V0H410"></path><g class="tick" opacity="1" transform="translate(0,300)"><line stroke="currentColor" x2="410" style="stroke: #ccc; fill: none;"></line></g><g class="tick" opacity="1" transform="translate(0,266.66666666666663)"><line stroke="currentColor" x2="410" style="stroke: #ccc; fill: none;"></line></g><g class="tick" opacity="1" transform="translate(0,233.33333333333334)"><line stroke="currentColor" x2="410" style="stroke: #ccc; fill: none;"></line></g><g class="tick" opacity="1" transform="translate(0,200.00000000000003)"><line stroke="currentColor" x2="410" style="stroke: #ccc; fill: none;"></line></g><g class="tick" opacity="1" transform="translate(0,166.66666666666669)"><line stroke="currentColor" x2="410" style="stroke: #ccc; fill: none;"></line></g><g class="tick" opacity="1" transform="translate(0,133.33333333333331)"><line stroke="currentColor" x2="410" style="stroke: #ccc; fill: none;"></line></g><g class="tick" opacity="1" transform="translate(0,100.00000000000001)"><line stroke="currentColor" x2="410" style="stroke: #ccc; fill: none;"></line></g><g class="tick" opacity="1" transform="translate(0,66.66666666666663)"><line stroke="currentColor" x2="410" style="stroke: #ccc; fill: none;"></line></g><g class="tick" opacity="1" transform="translate(0,33.333333333333314)"><line stroke="currentColor" x2="410" style="stroke: #ccc; fill: none;"></line></g><g class="tick" opacity="1" transform="translate(0,0)"><line stroke="currentColor" x2="410" style="stroke: #ccc; fill: none;"></line></g></g><g class="lines"><path class="line" d="M2.186,163.344L4.302,166.671L6.492,172.698L8.608,184.298L10.794,177.828L12.981,184.441L14.956,182.185L17.139,178.977L19.255,181.275L21.442,173.995L23.558,182.591L25.744,187.338L27.931,184.654L30.046,183.927L32.236,179.193L34.352,180.362L36.538,160.63L38.725,165.696L40.7,156.992L42.883,169.791L44.999,165.134L47.186,170.929L49.302,175.374L51.488,176.005L53.675,170.831L55.79,167.838L57.98,165.221L60.096,163.093L62.282,162.769L64.469,161.109L66.444,159.223L68.627,161.413L70.743,156.965L72.93,166.472L75.046,164.028L77.232,164.326L79.419,163.132L81.534,158.53L83.724,151.798L85.84,151.579L88.026,153.632L90.213,151.819L92.258,144.912L94.442,143.704L96.558,148.198L98.744,157.999L100.86,155.448L103.047,154.82L105.233,152.734L107.349,149.193L109.538,146.088L111.654,146.304L113.841,154.178L116.027,150.112L118.002,146.498L120.186,141.535L122.302,146.588L124.488,152.732L126.604,156.145L128.791,151.922L130.977,135.684L133.093,130.032L135.282,122.177L137.398,123.576L139.585,134.547L141.771,128.801L143.746,123.106L145.93,120.434L148.046,129.438L150.232,136.149L152.348,135.914L154.535,138.757L156.721,131.736L158.837,126.628L161.027,120.669L163.142,123.418L165.329,132.798L167.515,133.047L169.49,125.199L171.674,124.808L173.79,132.267L175.976,140.391L178.092,139.391L180.279,141.687L182.465,139.842L184.581,132.718L186.771,132.416L188.886,138.762L191.073,145.784L193.259,140.842L195.305,134.102L197.488,133.581L199.604,148.983L201.791,154.806L203.907,157.999L206.093,159.516L208.28,156.212L210.396,152.899L212.585,149.681L214.701,156.497L216.888,161.412L219.074,160.17L221.049,155.518L223.232,149.987L225.348,152.675L227.535,161.997L229.651,167.798L231.837,169.523L234.024,167.598L236.14,161.452L238.329,158.805L240.445,161.29L242.632,170.374L244.818,167.714L246.793,167.944L248.976,160.346L251.092,164.693L253.279,171.306L255.395,176.011L257.581,179.527L259.768,174.724L261.884,168.48L264.073,168.109L266.189,166.704L268.376,175.438L270.562,173.328L272.537,173.803L274.72,177.162L276.836,176.419L279.023,180.35L281.139,178.94L283.325,188.191L285.512,180.772L287.628,176.209L289.817,182.798L291.933,185.383L294.12,185.829L296.306,183.455L298.351,180.618L300.535,183.958L302.651,191.587L304.837,193.967L306.953,194.091L309.14,194.385L311.326,193.727L313.442,193.935L315.632,194.311L317.748,201.904L319.934,203.364L322.121,203.161L324.095,201.891L326.279,201.935L328.395,200.101L330.581,201.039L332.697,205.758L334.884,206.985L337.07,207.19L339.186,207.306L341.376,202.5L343.492,207.29L345.678,209.306L347.865,212.498L349.84,210.471L352.023,206.441L354.139,206.282L356.325,213.814L358.441,217.944L360.628,220.962L362.814,218.154L364.93,216.168L367.12,216.957L369.236,216.192L371.422,218.498L373.609,219.651L375.584,213.328L377.767,210.853L379.883,215.381L382.069,211.226L384.185,215.15L386.372,214.183L388.558,217.108L390.674,216.159L392.864,214.882L394.98,222.409L397.166,221.013L399.353,221.449L401.398,218.153L403.582,222.436L405.698,228.083L407.884,228.436L410,233.626" data-legend="java" style="stroke: rgb(31, 119, 180); fill: none;"></path><path class="line" d="M2.186,261.198L4.302,264.779L6.492,265.572L8.608,273.634L10.794,266.176L12.981,268.178L14.956,264.581L17.139,264.018L19.255,268.502L21.442,270.26L23.558,271.951L25.744,272.711L27.931,270.767L30.046,264.11L32.236,258.051L34.352,262.145L36.538,263.359L38.725,261.204L40.7,264.135L42.883,260.305L44.999,261.856L47.186,265.188L49.302,264.48L51.488,263.969L53.675,262.329L55.79,262.104L57.98,259.612L60.096,264.595L62.282,269.345L64.469,266.91L66.444,264.889L68.627,264.258L70.743,269.443L72.93,270.114L75.046,272.3L77.232,271.33L79.419,268.33L81.534,264.412L83.724,266.007L85.84,267.45L88.026,267.739L90.213,267.37L92.258,265.756L94.442,265.094L96.558,268.969L98.744,270.353L100.86,272.015L103.047,272.512L105.233,267.924L107.349,264.672L109.538,263.876L111.654,268.262L113.841,269.066L116.027,266.091L118.002,266.892L120.186,265.499L122.302,267.832L124.488,268.918L126.604,271.46L128.791,270.39L130.977,265.737L133.093,261.497L135.282,259.385L137.398,264.565L139.585,266.904L141.771,264.557L143.746,263.243L145.93,265.502L148.046,269.011L150.232,271.41L152.348,273.235L154.535,272.536L156.721,267.381L158.837,263.132L161.027,263.169L163.142,265.935L165.329,267.521L167.515,266.456L169.49,265.29L171.674,264.992L173.79,268.135L175.976,271.637L178.092,275.806L180.279,276.145L182.465,270.82L184.581,266.798L186.771,265.92L188.886,269.878L191.073,271.757L193.259,270.776L195.305,271.301L197.488,271.342L199.604,275.841L201.791,279.011L203.907,277.668L206.093,279.523L208.28,275.374L210.396,269.197L212.585,268.657L214.701,271.006L216.888,273.742L219.074,273.772L221.049,275.241L223.232,273.116L225.348,275.221L227.535,277.827L229.651,280.881L231.837,280.62L234.024,278.195L236.14,272.516L238.329,270.605L240.445,274.576L242.632,276.749L244.818,276.421L246.793,276.001L248.976,277.365L251.092,276.2L253.279,279.988L255.395,283.12L257.581,282.136L259.768,278.558L261.884,274.274L264.073,271.561L266.189,272.014L268.376,274.22L270.562,276.303L272.537,275.047L274.72,273.28L276.836,276.649L279.023,278.533L281.139,280.436L283.325,280.904L285.512,275.251L287.628,272.592L289.817,271.464L291.933,272.718L294.12,276.433L296.306,276.992L298.351,273.207L300.535,270.073L302.651,269.602L304.837,274.615L306.953,278.737L309.14,278.494L311.326,274.419L313.442,271.846L315.632,266.389L317.748,266.78L319.934,269.096L322.121,271.327L324.095,271.824L326.279,271.518L328.395,273.76L330.581,275.607L332.697,278.042L334.884,278.866L337.07,276.022L339.186,270.383L341.376,268.845L343.492,268.51L345.678,272.441L347.865,275.207L349.84,273.476L352.023,274.394L354.139,274.401L356.325,276.426L358.441,279.003L360.628,278.613L362.814,274.832L364.93,270.029L367.12,269.207L369.236,269.908L371.422,274.986L373.609,275.825L375.584,276.969L377.767,272.967L379.883,275.05L382.069,278.27L384.185,277.441L386.372,277.749L388.558,278.435L390.674,275.966L392.864,275.179L394.98,273.446L397.166,277.353L399.353,278.25L401.398,278.642L403.582,277.835L405.698,278.923L407.884,278.003L410,277.672" data-legend="c" style="stroke: rgb(255, 127, 14); fill: none;"></path><path class="line" d="M2.186,235.128L4.302,241.298L6.492,240.352L8.608,238.713L10.794,232.672L12.981,239.432L14.956,236.923L17.139,238.973L19.255,234.842L21.442,237.834L23.558,239.679L25.744,241.657L27.931,240.257L30.046,234.21L32.236,232.013L34.352,229.244L36.538,227.505L38.725,230.106L40.7,233.297L42.883,239.299L44.999,234.98L47.186,233.517L49.302,228.572L51.488,234.252L53.675,238.287L55.79,229.663L57.98,237.282L60.096,240.259L62.282,239.09L64.469,239.071L66.444,237.66L68.627,241.55L70.743,241.118L72.93,241.23L75.046,238.939L77.232,240.018L79.419,242.018L81.534,240.081L83.724,240.307L85.84,241.29L88.026,239.209L90.213,238.974L92.258,236.729L94.442,235.854L96.558,236.362L98.744,232.278L100.86,232.333L103.047,230.436L105.233,233.356L107.349,231.33L109.538,227.48L111.654,228.748L113.841,230.126L116.027,226.27L118.002,226.489L120.186,222.431L122.302,221.353L124.488,219.542L126.604,218.229L128.791,221.766L130.977,219.447L133.093,213.738L135.282,209.752L137.398,214.467L139.585,212.674L141.771,211.728L143.746,207.839L145.93,207.293L148.046,212.071L150.232,208.033L152.348,206.151L154.535,206.429L156.721,211.374L158.837,207.067L161.027,203.637L163.142,202.365L165.329,202.045L167.515,198.237L169.49,197.334L171.674,198.799L173.79,198.482L175.976,194.446L178.092,194.028L180.279,195.996L182.465,196.345L184.581,187.406L186.771,184.033L188.886,186.456L191.073,185.411L193.259,181.918L195.305,182.776L197.488,183.435L199.604,183.72L201.791,182.246L203.907,178.112L206.093,180.54L208.28,178.922L210.396,170.344L212.585,163.833L214.701,164.818L216.888,164.217L219.074,158.062L221.049,157.007L223.232,152.602L225.348,154.058L227.535,148.849L229.651,141.737L231.837,143.643L234.024,139.562L236.14,132.362L238.329,131.018L240.445,127.21L242.632,129.616L244.818,120.699L246.793,125.637L248.976,124.202L251.092,123.298L253.279,116.511L255.395,110.545L257.581,110.796L259.768,112.567L261.884,108.948L264.073,96.735L266.189,99.095L268.376,108.352L270.562,97.669L272.537,91.257L274.72,81.618L276.836,88.849L279.023,85.77L281.139,79.092L283.325,77.752L285.512,91.469L287.628,73.927L289.817,65.709L291.933,69.694L294.12,70.528L296.306,67.342L298.351,55.402L300.535,45.582L302.651,34.253L304.837,34.176L306.953,33.223L309.14,38.609L311.326,41.471L313.442,29.262L315.632,23.628L317.748,21.382L319.934,24.571L322.121,25.976L324.095,30.19L326.279,22.228L328.395,18.352L330.581,27.194L332.697,21.057L334.884,26.625L337.07,32.987L339.186,20.173L341.376,17.044L343.492,14.752L345.678,22.404L347.865,15.268L349.84,17.688L352.023,7.966L354.139,18.918L356.325,16.747L358.441,11.123L360.628,21.724L362.814,22.938L364.93,6.597L367.12,10.512L369.236,23.665L371.422,39.425L373.609,43.78L375.584,52.613L377.767,51.616L379.883,57.303L382.069,59.432L384.185,57.454L386.372,67.064L388.558,85.154L390.674,78.255L392.864,80.752L394.98,85.774L397.166,86.962L399.353,78.562L401.398,85.81L403.582,78.951L405.698,80.386L407.884,86.28L410,85.371" data-legend="python" style="stroke: rgb(44, 160, 44); fill: none;"></path><path class="line" d="M2.186,101.14L4.302,69.145L6.492,69.282L8.608,76.45L10.794,46.799L12.981,50.519L14.956,39.436L17.139,38.219L19.255,67.724L21.442,68.474L23.558,70.5L25.744,70.807L27.931,77.843L30.046,80.808L32.236,95.075L34.352,99.92L36.538,108.479L38.725,108.76L40.7,105.853L42.883,105.998L44.999,108.177L47.186,114.741L49.302,115.371L51.488,116.306L53.675,123.928L55.79,122.774L57.98,123.602L60.096,128.558L62.282,132.303L64.469,133.676L66.444,133.943L68.627,137.298L70.743,132.835L72.93,134.954L75.046,139.995L77.232,142.749L79.419,147.288L81.534,147.655L83.724,147.566L85.84,149.411L88.026,149.859L90.213,154.455L92.258,154.943L94.442,155.76L96.558,156.18L98.744,155.018L100.86,154.677L103.047,158.351L105.233,157.045L107.349,157.688L109.538,161.367L111.654,164.192L113.841,164.212L116.027,163.067L118.002,162.384L120.186,164.192L122.302,164.556L124.488,164.648L126.604,165.541L128.791,163.703L130.977,160.876L133.093,161.88L135.282,161.503L137.398,162.133L139.585,164.107L141.771,165.184L143.746,169.632L145.93,168.118L148.046,167.93L150.232,171.36L152.348,170.724L154.535,171.914L156.721,175.533L158.837,178.305L161.027,180.634L163.142,180.373L165.329,181.274L167.515,182.385L169.49,182.587L171.674,184.196L173.79,179.131L175.976,178.951L178.092,178.668L180.279,177.441L182.465,177.757L184.581,184.558L186.771,183.22L188.886,181.67L191.073,185.3L193.259,186.428L195.305,186.574L197.488,182.793L199.604,180.173L201.791,180.866L203.907,185.855L206.093,182.283L208.28,191.078L210.396,190.049L212.585,188.086L214.701,189.199L216.888,188.653L219.074,189.661L221.049,191.511L223.232,195.486L225.348,191.913L227.535,193.26L229.651,195.061L231.837,196.079L234.024,197.476L236.14,198.78L238.329,202.543L240.445,200.487L242.632,201.599L244.818,205.683L246.793,204.63L248.976,204.319L251.092,200.278L253.279,204.076L255.395,200.711L257.581,198.94L259.768,202.227L261.884,201.737L264.073,204.451L266.189,203.676L268.376,201.162L270.562,203.744L272.537,206.033L274.72,199.754L276.836,199.288L279.023,205.519L281.139,205.634L283.325,205.088L285.512,203.206L287.628,206.943L289.817,208.825L291.933,208.327L294.12,210.456L296.306,210.471L298.351,215.985L300.535,220.924L302.651,222.447L304.837,222.557L306.953,220.787L309.14,219.807L311.326,223.174L313.442,226.45L315.632,225.357L317.748,227.925L319.934,225.476L322.121,225.802L324.095,227.68L326.279,226.974L328.395,227.982L330.581,226.572L332.697,229.417L334.884,229.613L337.07,229.053L339.186,225.32L341.376,221.065L343.492,224.682L345.678,225.779L347.865,224.732L349.84,222.668L352.023,223.507L354.139,220.344L356.325,219.851L358.441,220.665L360.628,218.154L362.814,218.967L364.93,220.169L367.12,220.51L369.236,218.748L371.422,218.272L373.609,219.042L375.584,218.414L377.767,218.632L379.883,217.988L382.069,213.82L384.185,211.641L386.372,213.065L388.558,223.969L390.674,221.701L392.864,219.307L394.98,218.946L397.166,226.203L399.353,223.504L401.398,224.913L403.582,217.81L405.698,220.962L407.884,220.709L410,215.714" data-legend="c#" style="stroke: rgb(214, 39, 40); fill: none;"></path><path class="line" d="M2.186,274.294L4.302,271.986L6.492,269.976L8.608,269.988L10.794,273.645L12.981,272.793L14.956,267.553L17.139,270.358L19.255,271.972L21.442,274.202L23.558,276.695L25.744,271.886L27.931,275.571L30.046,280.221L32.236,280.362L34.352,277.813L36.538,279.956L38.725,277.466L40.7,278.378L42.883,279.665L44.999,282.353L47.186,283.455L49.302,281.244L51.488,283.649L53.675,283.844L55.79,283.345L57.98,282.86L60.096,285.041L62.282,282.465L64.469,283.637L66.444,285.186L68.627,282.534L70.743,284.663L72.93,284.81L75.046,285.246L77.232,285.657L79.419,286.257L81.534,285.262L83.724,286.731L85.84,286.064L88.026,285.749L90.213,285.781L92.258,287.07L94.442,287.142L96.558,286.849L98.744,288.474L100.86,287.971L103.047,286.922L105.233,285.844L107.349,286.668L109.538,285.255L111.654,286.398L113.841,285.803L116.027,285.738L118.002,286.468L120.186,284.761L122.302,285.629L124.488,285.107L126.604,284.639L128.791,284.543L130.977,284.123L133.093,283.514L135.282,284.769L137.398,284.413L139.585,284.271L141.771,284.852L143.746,284.205L145.93,284.389L148.046,286.312L150.232,286.353L152.348,285.943L154.535,286.525L156.721,286.928L158.837,286.553L161.027,286.757L163.142,286.054L165.329,286.68L167.515,287.936L169.49,288.013L171.674,288.183L173.79,288.021L175.976,287.67L178.092,288.304L180.279,288.657L182.465,288.3L184.581,288.999L186.771,289.374L188.886,288.836L191.073,288.532L193.259,289.157L195.305,289.182L197.488,289.766L199.604,289.236L201.791,289.976L203.907,289.896L206.093,289.896L208.28,290.586L210.396,290.547L212.585,290.62L214.701,290.941L216.888,290.929L219.074,291.097L221.049,291.209L223.232,291.127L225.348,291.451L227.535,291.865L229.651,291.885L231.837,292.615L234.024,292.229L236.14,292.584L238.329,292.404L240.445,292.458L242.632,293.393L244.818,292.959L246.793,293.481L248.976,294.071L251.092,293.151L253.279,293.523L255.395,293.756L257.581,294.562L259.768,293.271L261.884,293.924L264.073,293.724L266.189,294.137L268.376,293.382L270.562,292.864L272.537,293.543L274.72,293.124L276.836,293.631L279.023,293.493L281.139,293.755L283.325,294.33L285.512,294.317L287.628,294.024L289.817,294.468L291.933,293.964L294.12,294.791L296.306,294.466L298.351,294.349L300.535,294.689L302.651,295.41L304.837,295.281L306.953,295.33L309.14,295.116L311.326,295.144L313.442,294.769L315.632,295.27L317.748,295.474L319.934,295.411L322.121,295.328L324.095,294.897L326.279,294.816L328.395,295.835L330.581,295.832L332.697,296.272L334.884,295.588L337.07,296.053L339.186,295.617L341.376,296.049L343.492,295.486L345.678,296.168L347.865,295.552L349.84,295.834L352.023,296.327L354.139,296.169L356.325,295.763L358.441,295.849L360.628,296.475L362.814,295.984L364.93,296.476L367.12,295.986L369.236,296.454L371.422,295.779L373.609,295.44L375.584,295.509L377.767,296.453L379.883,295.344L382.069,295.712L384.185,295.526L386.372,296.226L388.558,296.33L390.674,295.818L392.864,296.544L394.98,296.352L397.166,296.281L399.353,297.174L401.398,296.241L403.582,296.129L405.698,296.136L407.884,297.304L410,295.908" data-legend="vb.net" style="stroke: rgb(148, 103, 189); fill: none;"></path><path class="line" d="M2.186,223.245L4.302,216.074L6.492,222.471L8.608,212.347L10.794,215.92L12.981,209.245L14.956,217.026L17.139,217.099L19.255,206.421L21.442,207.497L23.558,208.659L25.744,204.258L27.931,210.258L30.046,205.006L32.236,202.118L34.352,197.147L36.538,201.617L38.725,200.962L40.7,203.748L42.883,198.865L44.999,195.346L47.186,194.992L49.302,192.747L51.488,194.364L53.675,190.175L55.79,191.872L57.98,190.352L60.096,180.348L62.282,186.149L64.469,186.677L66.444,187.435L68.627,179.196L70.743,177.739L72.93,169.938L75.046,164.782L77.232,160.646L79.419,165.496L81.534,167.273L83.724,166.756L85.84,165.335L88.026,161.297L90.213,164.958L92.258,165.745L94.442,161.243L96.558,156.407L98.744,156.076L100.86,154.452L103.047,152.727L105.233,158.343L107.349,161.077L109.538,160.185L111.654,154.465L113.841,153.303L116.027,150.694L118.002,152.426L120.186,150.347L122.302,148.508L124.488,145.525L126.604,140.517L128.791,134.301L130.977,121.087L133.093,120.83L135.282,124.477L137.398,117.587L139.585,112.825L141.771,111.558L143.746,117.5L145.93,115.47L148.046,112.08L150.232,111.455L152.348,109.842L154.535,111.067L156.721,117.266L158.837,116.762L161.027,119.266L163.142,116.802L165.329,112.757L167.515,114.046L169.49,118.464L171.674,114.97L173.79,99.785L175.976,97.77L178.092,94.089L180.279,94.785L182.465,97.815L184.581,103.367L186.771,99.556L188.886,94.663L191.073,91.101L193.259,99.507L195.305,99.143L197.488,99.567L199.604,95.919L201.791,97.926L203.907,88.823L206.093,90.215L208.28,99.372L210.396,103.718L212.585,103.061L214.701,94.781L216.888,96.249L219.074,96.367L221.049,102.177L223.232,99.958L225.348,98.049L227.535,96.302L229.651,97.711L231.837,97.632L234.024,103.026L236.14,103.718L238.329,106.753L240.445,103.666L242.632,101.61L244.818,110.573L246.793,113.555L248.976,114.006L251.092,118.423L253.279,112.364L255.395,111.879L257.581,109.632L259.768,112.824L261.884,116.859L264.073,117.541L266.189,117.863L268.376,118.845L270.562,119.099L272.537,118.25L274.72,122.111L276.836,119.878L279.023,115.938L281.139,119.666L283.325,112.659L285.512,116.503L287.628,123.377L289.817,120.969L291.933,118.045L294.12,115.945L296.306,117.168L298.351,110.459L300.535,107.616L302.651,106.058L304.837,105.956L306.953,98.407L309.14,95.429L311.326,100.484L313.442,105.004L315.632,106.53L317.748,98.828L319.934,96.994L322.121,104.654L324.095,110.193L326.279,103.535L328.395,101.111L330.581,104.148L332.697,99.884L334.884,98.548L337.07,97.52L339.186,104.583L341.376,109.998L343.492,104.062L345.678,103.355L347.865,110.643L349.84,114.851L352.023,101.732L354.139,107.223L356.325,109.44L358.441,106.453L360.628,105.243L362.814,107.011L364.93,115.399L367.12,119.656L369.236,120.806L371.422,125.548L373.609,133.111L375.584,135.734L377.767,138.048L379.883,143.921L382.069,143.971L384.185,140.133L386.372,152.21L388.558,158.47L390.674,166.303L392.864,165.948L394.98,154.71L397.166,159.511L399.353,165.933L401.398,163.054L403.582,171.937L405.698,172.9L407.884,174.234L410,179.278" data-legend="javascript" style="stroke: rgb(140, 86, 75); fill: none;"></path><path class="line" d="M2.186,296.605L4.302,298.14L6.492,297.865L8.608,297.616L10.794,297.653L12.981,296.539L14.956,298.019L17.139,296.037L19.255,296.988L21.442,297.134L23.558,298.332L25.744,297.524L27.931,296.831L30.046,296.611L32.236,296.406L34.352,297.232L36.538,296.254L38.725,297.409L40.7,296.037L42.883,295.832L44.999,296.503L47.186,297.283L49.302,297.317L51.488,297.728L53.675,296.785L55.79,296.759L57.98,296.041L60.096,296.979L62.282,297.204L64.469,297.019L66.444,296.784L68.627,297.203L70.743,297.349L72.93,297.638L75.046,297.655L77.232,297.499L79.419,297.453L81.534,296.486L83.724,296.729L85.84,296.284L88.026,297.537L90.213,296.872L92.258,296.707L94.442,296.384L96.558,297.15L98.744,297.419L100.86,297.616L103.047,297.753L105.233,297.189L107.349,296.476L109.538,296.558L111.654,296.758L113.841,296.862L116.027,296.44L118.002,296.445L120.186,296.752L122.302,296.968L124.488,296.896L126.604,297.179L128.791,297.925L130.977,297.054L133.093,296.568L135.282,296.021L137.398,296.38L139.585,296.99L141.771,296.661L143.746,296.363L145.93,296.89L148.046,296.865L150.232,297.254L152.348,297.948L154.535,298.116L156.721,297.173L158.837,296.225L161.027,296.144L163.142,296.492L165.329,296.634L167.515,296.442L169.49,296.611L171.674,296.123L173.79,296.672L175.976,297.606L178.092,297.759L180.279,297.967L182.465,297.565L184.581,296.113L186.771,296.19L188.886,296.562L191.073,297.705L193.259,296.901L195.305,296.36L197.488,296.466L199.604,297.12L201.791,297.35L203.907,298.076L206.093,297.627L208.28,296.708L210.396,296.172L212.585,296.036L214.701,296.748L216.888,297.081L219.074,297.103L221.049,296.905L223.232,297.017L225.348,296.855L227.535,297.73L229.651,297.936L231.837,297.947L234.024,297.618L236.14,296.708L238.329,296.167L240.445,297.134L242.632,297.338L244.818,296.904L246.793,296.906L248.976,296.667L251.092,297.029L253.279,297.768L255.395,298.074L257.581,298.12L259.768,296.999L261.884,296.625L264.073,296.596L266.189,297.171L268.376,297.53L270.562,297.409L272.537,297.098L274.72,296.656L276.836,297.381L279.023,297.519L281.139,297.903L283.325,297.95L285.512,297.264L287.628,296.485L289.817,296.784L291.933,296.848L294.12,297.361L296.306,296.855L298.351,296.828L300.535,296.508L302.651,296.759L304.837,296.775L306.953,297.243L309.14,296.994L311.326,296.492L313.442,295.913L315.632,295.32L317.748,296.23L319.934,296.293L322.121,296.868L324.095,296.363L326.279,296.034L328.395,296.214L330.581,296.579L332.697,297.497L334.884,297.773L337.07,297.294L339.186,297.121L341.376,295.978L343.492,296.013L345.678,296.776L347.865,296.827L349.84,296.818L352.023,296.372L354.139,296.27L356.325,296.399L358.441,296.914L360.628,297.566L362.814,297.187L364.93,296.428L367.12,295.847L369.236,295.463L371.422,296.005L373.609,296.619L375.584,296.891L377.767,295.548L379.883,295.901L382.069,296.268L384.185,295.981L386.372,296.198L388.558,296.104L390.674,295.742L392.864,295.549L394.98,294.467L397.166,295.143L399.353,296.232L401.398,295.95L403.582,294.436L405.698,294.316L407.884,296.262L410,296.231" data-legend="assembly" style="stroke: rgb(227, 119, 194); fill: none;"></path><path class="line" d="M2.186,242.525L4.302,229.79L6.492,233.68L8.608,233.524L10.794,233.099L12.981,227.607L14.956,226.273L17.139,224.549L19.255,223.644L21.442,206.303L23.558,195.521L25.744,188.06L27.931,185.267L30.046,191.495L32.236,183.006L34.352,174.827L36.538,172.319L38.725,182.033L40.7,180.289L42.883,178.261L44.999,171.934L47.186,177.299L49.302,173.493L51.488,165.254L53.675,171.82L55.79,181.884L57.98,177.485L60.096,170.778L62.282,165.985L64.469,164.901L66.444,165.788L68.627,166.813L70.743,165.204L72.93,164.365L75.046,156.106L77.232,161.039L79.419,168.027L81.534,167.389L83.724,166.771L85.84,165.417L88.026,166.382L90.213,166.324L92.258,164.023L94.442,165.371L96.558,163.897L98.744,165.008L100.86,161.736L103.047,159.504L105.233,161.026L107.349,168.675L109.538,166.944L111.654,163.484L113.841,163.283L116.027,163.045L118.002,164.157L120.186,169.354L122.302,168.609L124.488,165.796L126.604,164.388L128.791,159.513L130.977,156.386L133.093,161.232L135.282,159.203L137.398,154.599L139.585,151.576L141.771,153.25L143.746,152.743L145.93,148.434L148.046,160.264L150.232,166.459L152.348,165.262L154.535,164.955L156.721,165.48L158.837,168.672L161.027,169.219L163.142,167.066L165.329,162.682L167.515,165.372L169.49,168.267L171.674,167.775L173.79,168.34L175.976,171.705L178.092,168.093L180.279,168.317L182.465,172.433L184.581,174.778L186.771,174.749L188.886,166.481L191.073,165.124L193.259,167.154L195.305,174.053L197.488,176.607L199.604,172.12L201.791,175.914L203.907,177.379L206.093,180.846L208.28,181.113L210.396,182.452L212.585,185.469L214.701,181.221L216.888,180.107L219.074,180.228L221.049,183.163L223.232,183.507L225.348,182.65L227.535,189.363L229.651,190.22L231.837,189.872L234.024,189.299L236.14,193.159L238.329,194.768L240.445,194.581L242.632,194.193L244.818,199.909L246.793,204.513L248.976,207.6L251.092,205.243L253.279,208.069L255.395,209.791L257.581,209.57L259.768,210.445L261.884,214.436L264.073,220.293L266.189,220.742L268.376,219.055L270.562,216.234L272.537,218.526L274.72,221.154L276.836,222.493L279.023,225.415L281.139,225.658L283.325,228.31L285.512,231.497L287.628,233.143L289.817,230.78L291.933,233.376L294.12,232.18L296.306,234.225L298.351,238.869L300.535,239.111L302.651,241.186L304.837,241.906L306.953,239.781L309.14,243.361L311.326,243.243L313.442,245.657L315.632,242.501L317.748,239.738L319.934,242.697L322.121,243.886L324.095,246.183L326.279,246.567L328.395,246.397L330.581,246.692L332.697,247.09L334.884,246.708L337.07,247.985L339.186,249.178L341.376,250.705L343.492,251.403L345.678,252.249L347.865,253.825L349.84,257.291L352.023,253.066L354.139,251.24L356.325,251.596L358.441,252.959L360.628,253.432L362.814,254.021L364.93,256.076L367.12,257.133L369.236,258.626L371.422,255.966L373.609,260.435L375.584,263.343L377.767,260.637L379.883,258.576L382.069,258.604L384.185,261.152L386.372,257.79L388.558,258.504L390.674,262.967L392.864,263.581L394.98,262.935L397.166,261.672L399.353,262.894L401.398,260.344L403.582,264.439L405.698,263.371L407.884,259.204L410,264.067" data-legend="php" style="stroke: rgb(127, 127, 127); fill: none;"></path><path class="line" d="M2.186,284.237L4.302,285.121L6.492,287.056L8.608,281.347L10.794,284.422L12.981,284.329L14.956,288.772L17.139,287.24L19.255,287.165L21.442,285.309L23.558,286.653L25.744,287.207L27.931,287.377L30.046,286.907L32.236,285.885L34.352,288.349L36.538,288.761L38.725,286.968L40.7,287.433L42.883,287.799L44.999,290.739L47.186,287.651L49.302,287.966L51.488,285.603L53.675,287.361L55.79,286.876L57.98,288.799L60.096,287.916L62.282,290.013L64.469,290.247L66.444,289.935L68.627,290.326L70.743,290.251L72.93,290.366L75.046,288.98L77.232,290.422L79.419,291.731L81.534,290.757L83.724,290.638L85.84,291.247L88.026,291.826L90.213,291.627L92.258,292.313L94.442,292.138L96.558,291.905L98.744,290.462L100.86,292.099L103.047,290.964L105.233,291.58L107.349,292.346L109.538,292.775L111.654,293.156L113.841,292.966L116.027,291.814L118.002,291.776L120.186,291.787L122.302,290.904L124.488,291.22L126.604,290.947L128.791,291.787L130.977,293.072L133.093,292.579L135.282,292.175L137.398,292.262L139.585,292.804L141.771,292.945L143.746,292.661L145.93,292.896L148.046,292.411L150.232,293.005L152.348,293.048L154.535,292.969L156.721,293.13L158.837,293.792L161.027,293.379L163.142,293.882L165.329,294.029L167.515,294.363L169.49,294.339L171.674,294.899L173.79,295.221L175.976,294.889L178.092,295.018L180.279,294.876L182.465,295.595L184.581,295.507L186.771,295.623L188.886,295.341L191.073,295.864L193.259,295.534L195.305,296.102L197.488,295.79L199.604,295.689L201.791,296.034L203.907,296.067L206.093,295.736L208.28,295.47L210.396,296.144L212.585,296.46L214.701,296.51L216.888,296.91L219.074,296.169L221.049,296.579L223.232,296.517L225.348,296.792L227.535,297.049L229.651,296.979L231.837,296.626L234.024,296.91L236.14,296.698L238.329,297.365L240.445,297.25L242.632,297.422L244.818,297.455L246.793,297.189L248.976,297.373L251.092,297.563L253.279,297.396L255.395,297.397L257.581,297.575L259.768,297.597L261.884,297.078L264.073,297.354L266.189,297.209L268.376,297.031L270.562,297.109L272.537,297.571L274.72,297.737L276.836,297.526L279.023,297.07L281.139,297.354L283.325,297.628L285.512,297.536L287.628,297.694L289.817,297.502L291.933,297.997L294.12,298.098L296.306,297.926L298.351,297.878L300.535,297.977L302.651,298.081L304.837,298.053L306.953,298.209L309.14,297.814L311.326,298.019L313.442,297.974L315.632,298.123L317.748,298.348L319.934,298.249L322.121,298.293L324.095,298.272L326.279,298.309L328.395,298.485L330.581,297.981L332.697,298.123L334.884,298.368L337.07,298.421L339.186,298.199L341.376,298.91L343.492,298.48L345.678,298.218L347.865,298.576L349.84,298.593L352.023,298.525L354.139,298.679L356.325,298.139L358.441,298.084L360.628,298.267L362.814,298.667L364.93,298.714L367.12,298.354L369.236,298.366L371.422,298.749L373.609,298.467L375.584,298.196L377.767,298.654L379.883,298.659L382.069,298.571L384.185,298.259L386.372,298.658L388.558,298.492L390.674,298.665L392.864,298.848L394.98,298.362L397.166,299.084L399.353,298.972L401.398,298.631L403.582,299.214L405.698,298.786L407.884,298.922L410,298.708" data-legend="perl" style="stroke: rgb(188, 189, 34); fill: none;"></path><path class="line" d="M2.186,265.321L4.302,271.405L6.492,279.45L8.608,277.701L10.794,278.126L12.981,272.504L14.956,272.837L17.139,271.785L19.255,273.806L21.442,274.262L23.558,273.984L25.744,275.033L27.931,275.622L30.046,277.157L32.236,271.332L34.352,274.555L36.538,274.449L38.725,274.161L40.7,277.701L42.883,274.725L44.999,274.905L47.186,274.337L49.302,274.826L51.488,273.796L53.675,274.309L55.79,275.623L57.98,277.621L60.096,275.325L62.282,274.728L64.469,274.716L66.444,272.738L68.627,274.056L70.743,273.772L72.93,273.597L75.046,273.589L77.232,270.953L79.419,274.515L81.534,273.355L83.724,273.168L85.84,272.894L88.026,272.606L90.213,272.287L92.258,272.493L94.442,274.389L96.558,275.387L98.744,275.722L100.86,275.61L103.047,275.567L105.233,275.161L107.349,274.738L109.538,275.838L111.654,276.374L113.841,275.492L116.027,275.716L118.002,275.28L120.186,275.89L122.302,276.412L124.488,276.433L126.604,276.825L128.791,275.549L130.977,275.793L133.093,274.569L135.282,275.484L137.398,275.261L139.585,275.472L141.771,276.786L143.746,276.186L145.93,276.262L148.046,274.488L150.232,275.876L152.348,275.78L154.535,274.729L156.721,277.068L158.837,277.241L161.027,278.743L163.142,276.796L165.329,275.478L167.515,277.46L169.49,278.218L171.674,277.829L173.79,277.33L175.976,276.936L178.092,277.78L180.279,278.559L182.465,279.584L184.581,280.213L186.771,281.528L188.886,280.202L191.073,280.093L193.259,279.922L195.305,281.176L197.488,281.063L199.604,281.058L201.791,280.775L203.907,281.925L206.093,282.619L208.28,281.103L210.396,282.526L212.585,283.135L214.701,283.098L216.888,282.631L219.074,284.398L221.049,285.036L223.232,285.982L225.348,286.291L227.535,286.624L229.651,285.731L231.837,286.779L234.024,287.287L236.14,287.141L238.329,288.292L240.445,288.211L242.632,287.796L244.818,288.662L246.793,289.655L248.976,289.773L251.092,289.606L253.279,289.179L255.395,290.052L257.581,290.662L259.768,290.926L261.884,290.57L264.073,290.581L266.189,289.681L268.376,289.62L270.562,290.91L272.537,291.167L274.72,291.535L276.836,291.493L279.023,291.249L281.139,291.502L283.325,290.403L285.512,291.148L287.628,290.609L289.817,292.199L291.933,291.489L294.12,291.23L296.306,292.404L298.351,292.314L300.535,292.943L302.651,293.708L304.837,293.983L306.953,292.929L309.14,293.704L311.326,293.891L313.442,294.15L315.632,293.743L317.748,293.722L319.934,293.696L322.121,293.198L324.095,294.374L326.279,293.573L328.395,294.964L330.581,294.521L332.697,293.946L334.884,293.845L337.07,293.741L339.186,294.142L341.376,294.449L343.492,294.403L345.678,293.75L347.865,294.009L349.84,293.936L352.023,293.643L354.139,293.673L356.325,293.569L358.441,293.873L360.628,293.667L362.814,293.513L364.93,294.079L367.12,293.648L369.236,294.003L371.422,294.32L373.609,293.789L375.584,294.914L377.767,295.156L379.883,294.357L382.069,294.918L384.185,294.642L386.372,295.108L388.558,295.225L390.674,295.188L392.864,296.073L394.98,295.27L397.166,295.532L399.353,295.519L401.398,296.008L403.582,296.553L405.698,296.264L407.884,295.759L410,296.446" data-legend="ruby" style="stroke: rgb(23, 190, 207); fill: none;"></path><path class="line" d="M2.186,300L4.302,300L6.492,300L8.608,300L10.794,299.893L12.981,299.904L14.956,299.917L17.139,300L19.255,299.869L21.442,300L23.558,300L25.744,299.845L27.931,299.847L30.046,299.954L32.236,299.868L34.352,299.955L36.538,300L38.725,299.925L40.7,299.968L42.883,299.933L44.999,299.968L47.186,299.909L49.302,299.972L51.488,299.947L53.675,299.945L55.79,299.974L57.98,299.976L60.096,299.952L62.282,299.916L64.469,299.899L66.444,299.95L68.627,299.947L70.743,299.983L72.93,299.932L75.046,299.799L77.232,299.874L79.419,299.901L81.534,299.9L83.724,299.938L85.84,299.967L88.026,299.913L90.213,299.877L92.258,299.949L94.442,299.934L96.558,299.912L98.744,299.948L100.86,299.893L103.047,299.941L105.233,299.911L107.349,299.955L109.538,299.955L111.654,299.95L113.841,299.947L116.027,299.934L118.002,299.952L120.186,299.941L122.302,299.98L124.488,299.957L126.604,299.933L128.791,299.96L130.977,299.909L133.093,299.909L135.282,299.952L137.398,299.888L139.585,299.947L141.771,299.893L143.746,299.96L145.93,299.965L148.046,299.914L150.232,275.317L152.348,284.518L154.535,282.614L156.721,280.838L158.837,276.074L161.027,274.282L163.142,273.158L165.329,269.143L167.515,267.725L169.49,268.182L171.674,264.468L173.79,265.668L175.976,261.315L178.092,255.732L180.279,252.894L182.465,257.007L184.581,261.239L186.771,259.265L188.886,257.385L191.073,255.605L193.259,257.629L195.305,257.72L197.488,259.414L199.604,260.846L201.791,256.268L203.907,253.098L206.093,254.624L208.28,252.359L210.396,254.579L212.585,258.074L214.701,259.247L216.888,258.691L219.074,261.058L221.049,261.489L223.232,263.139L225.348,263.076L227.535,260.375L229.651,259.276L231.837,260.357L234.024,260.946L236.14,261.461L238.329,263.459L240.445,262.915L242.632,260.694L244.818,262.549L246.793,260.591L248.976,263.025L251.092,263.66L253.279,265.72L255.395,261.267L257.581,261.943L259.768,263.271L261.884,265.593L264.073,266.371L266.189,264.461L268.376,267.182L270.562,269.121L272.537,269.116L274.72,266.239L276.836,265.366L279.023,261.617L281.139,266.03L283.325,268.799L285.512,268.466L287.628,265.729L289.817,267.426L291.933,266.171L294.12,266.718L296.306,267.928L298.351,268.563L300.535,268.262L302.651,268.28L304.837,269.05L306.953,269.682L309.14,269.58L311.326,269.599L313.442,272.477L315.632,273.034L317.748,273.638L319.934,272.164L322.121,271.147L324.095,273.029L326.279,273.818L328.395,276.625L330.581,276.642L332.697,273.389L334.884,273.942L337.07,277.22L339.186,277.858L341.376,278.347L343.492,278.711L345.678,275.609L347.865,276.319L349.84,276.29L352.023,278.657L354.139,278.856L356.325,277.152L358.441,277.696L360.628,277.881L362.814,275.791L364.93,278.967L367.12,277.959L369.236,278.653L371.422,279.069L373.609,279.107L375.584,278.255L377.767,278.105L379.883,279.554L382.069,275.173L384.185,274.95L386.372,278.42L388.558,278.561L390.674,277.856L392.864,277.483L394.98,277.279L397.166,276.215L399.353,280.933L401.398,278.992L403.582,279.256L405.698,280.52L407.884,277.212L410,277.6" data-legend="swift" style="stroke: rgb(31, 119, 180); fill: none;"></path><path class="line" d="M2.186,299.272L4.302,300L6.492,299.867L8.608,299.86L10.794,299.146L12.981,299.231L14.956,299.67L17.139,299.049L19.255,299.869L21.442,299.701L23.558,297.393L25.744,297.575L27.931,292.947L30.046,296.611L32.236,295.923L34.352,296.429L36.538,296.478L38.725,295.418L40.7,295.521L42.883,294.622L44.999,295.499L47.186,294.686L49.302,293.554L51.488,292.524L53.675,293.515L55.79,294.36L57.98,294.182L60.096,294.611L62.282,294.765L64.469,293.471L66.444,292.968L68.627,291.663L70.743,292.868L72.93,292.49L75.046,292.413L77.232,290.784L79.419,289.879L81.534,289.708L83.724,290.622L85.84,290.025L88.026,289.946L90.213,288.923L92.258,288.767L94.442,289.009L96.558,289.017L98.744,287.532L100.86,286.785L103.047,287.112L105.233,286.557L107.349,285.804L109.538,284.721L111.654,284.97L113.841,283.946L116.027,281.804L118.002,282.167L120.186,282.033L122.302,282.051L124.488,281.196L126.604,281.342L128.791,281.104L130.977,282.65L133.093,280.995L135.282,279.196L137.398,280.64L139.585,279.141L141.771,276.598L143.746,277.361L145.93,276.392L148.046,275.396L150.232,275.213L152.348,275.049L154.535,274.605L156.721,276.126L158.837,273.096L161.027,272.748L163.142,274.5L165.329,272.832L167.515,270.354L169.49,268.449L171.674,270.519L173.79,269.005L175.976,269.35L178.092,265.73L180.279,267.606L182.465,268.489L184.581,266.771L186.771,266.591L188.886,268.969L191.073,267.148L193.259,267.972L195.305,266.268L197.488,264.719L199.604,266.277L201.791,264.739L203.907,264.336L206.093,264.942L208.28,267.571L210.396,263.59L212.585,265.79L214.701,267.287L216.888,266.769L219.074,264.638L221.049,261.514L223.232,259.788L225.348,261.043L227.535,257.991L229.651,257.08L231.837,256.65L234.024,256.119L236.14,254.997L238.329,255.064L240.445,256.927L242.632,255.855L244.818,250.417L246.793,250.256L248.976,250.919L251.092,252.39L253.279,251.004L255.395,253.414L257.581,256.195L259.768,256.049L261.884,254.128L264.073,252.293L266.189,256.537L268.376,255.363L270.562,250.952L272.537,252.827L274.72,249.32L276.836,251.956L279.023,250.884L281.139,252.98L283.325,251.235L285.512,251.294L287.628,251.459L289.817,251.196L291.933,252.3L294.12,252.359L296.306,245.607L298.351,244.65L300.535,243.037L302.651,245.621L304.837,246.595L306.953,249.813L309.14,248.872L311.326,243.326L313.442,239.676L315.632,239.91L317.748,245.348L319.934,247.636L322.121,244.554L324.095,241.319L326.279,240.462L328.395,241.171L330.581,243.979L332.697,244.995L334.884,244.232L337.07,245.081L339.186,240.866L341.376,243.029L343.492,246.784L345.678,245.688L347.865,242.007L349.84,238.839L352.023,238.419L354.139,240.022L356.325,241.186L358.441,244.323L360.628,243.514L362.814,242.51L364.93,237.916L367.12,238.476L369.236,244.145L371.422,243.442L373.609,235.749L375.584,236.589L377.767,236.393L379.883,239.876L382.069,241.506L384.185,245.773L386.372,244.037L388.558,249.279L390.674,248.632L392.864,248.081L394.98,250.663L397.166,250.154L399.353,248.051L401.398,250.874L403.582,253.673L405.698,256.122L407.884,257.083L410,258.216" data-legend="r" style="stroke: rgb(255, 127, 14); fill: none;"></path><path class="line" d="M2.186,293.937L4.302,289.538L6.492,285.855L8.608,282.75L10.794,284.742L12.981,279.811L14.956,275.975L17.139,271.785L19.255,267.257L21.442,270.738L23.558,264.652L25.744,263.994L27.931,264.532L30.046,265.271L32.236,266.774L34.352,265.091L36.538,262.872L38.725,262.143L40.7,263.62L42.883,261.179L44.999,257.711L47.186,256.735L49.302,246.581L51.488,250.603L53.675,254.581L55.79,254.251L57.98,255.87L60.096,255.774L62.282,254.27L64.469,250.75L66.444,249.358L68.627,243.397L70.743,241.487L72.93,243.337L75.046,238.42L77.232,239.908L79.419,246.053L81.534,245.96L83.724,245.159L85.84,246.359L88.026,245.591L90.213,247.824L92.258,251.939L94.442,249.199L96.558,251.833L98.744,251.29L100.86,249.119L103.047,250.101L105.233,256.986L107.349,253.876L109.538,256.413L111.654,253.902L113.841,256.662L116.027,257.311L118.002,257.418L120.186,260.298L122.302,261.546L124.488,264.315L126.604,264.332L128.791,265.054L130.977,260.049L133.093,259.397L135.282,261.723L137.398,259.582L139.585,260.901L141.771,259.123L143.746,259.508L145.93,259.837L148.046,260.399L150.232,261.327L152.348,260.46L154.535,262.036L156.721,262.233L158.837,264.251L161.027,267.136L163.142,267.278L165.329,269.812L167.515,268.435L169.49,270.986L171.674,270.102L173.79,271.635L175.976,272.121L178.092,271.488L180.279,272.414L182.465,272.81L184.581,274.464L186.771,277.935L188.886,278.033L191.073,278.077L193.259,279.199L195.305,280.984L197.488,281.003L199.604,282.258L201.791,281.031L203.907,282.192L206.093,283.24L208.28,283.55L210.396,284.372L212.585,284.992L214.701,284.47L216.888,286.055L219.074,287.141L221.049,287.938L223.232,289.258L225.348,289.319L227.535,288.46L229.651,289.643L231.837,290.657L234.024,290.772L236.14,291.503L238.329,291.925L240.445,292.597L242.632,293.035L244.818,293.521L246.793,294.203L248.976,294.258L251.092,294.138L253.279,294.726L255.395,294.624L257.581,294.979L259.768,295.182L261.884,295.633L264.073,296.178L266.189,296.531L268.376,296.351L270.562,296.635L272.537,296.824L274.72,296.512L276.836,296.933L279.023,296.809L281.139,297.276L283.325,297.406L285.512,296.917L287.628,296.463L289.817,296.886L291.933,296.874L294.12,296.946L296.306,297.088L298.351,297.434L300.535,297.358L302.651,297.556L304.837,297.837L306.953,297.1L309.14,297.655L311.326,297.327L313.442,297.057L315.632,297.372L317.748,297.983L319.934,298.201L322.121,297.741L324.095,298.045L326.279,297.986L328.395,298.384L330.581,298.165L332.697,298.34L334.884,298.313L337.07,298.492L339.186,298.184L341.376,298.187L343.492,298.345L345.678,298.091L347.865,298.621L349.84,298.88L352.023,298.304L354.139,298.781L356.325,298.593L358.441,298.708L360.628,298.745L362.814,298.651L364.93,298.698L367.12,298.539L369.236,299.027L371.422,299.062L373.609,298.919L375.584,298.848L377.767,299.021L379.883,298.456L382.069,299.047L384.185,298.902L386.372,298.966L388.558,299.095L390.674,298.917L392.864,298.665L394.98,298.671L397.166,298.918L399.353,298.858L401.398,298.805L403.582,298.73L405.698,298.786L407.884,298.778L410,298.744" data-legend="objective-c" style="stroke: rgb(44, 160, 44); fill: none;"></path></g></g><g transform="translate(20, 150)"><text font-family="sans-serif" transform="rotate(-90)" x="-50" y="0" dy="1em" class="axis-label y-axis-label" style="text-anchor: middle; font-weight: bold;">% of Stack Overflow questions that month</text></g><g font-family="sans-serif" class="legend" transform="translate(530, 20)" style="font-size: 12px;"><rect y="0" width="10" height="10" style="fill: rgb(31, 119, 180);"></rect><rect y="15" width="10" height="10" style="fill: rgb(255, 127, 14);"></rect><rect y="30" width="10" height="10" style="fill: rgb(44, 160, 44);"></rect><rect y="45" width="10" height="10" style="fill: rgb(214, 39, 40);"></rect><rect y="60" width="10" height="10" style="fill: rgb(148, 103, 189);"></rect><rect y="75" width="10" height="10" style="fill: rgb(140, 86, 75);"></rect><rect y="90" width="10" height="10" style="fill: rgb(227, 119, 194);"></rect><rect y="105" width="10" height="10" style="fill: rgb(127, 127, 127);"></rect><rect y="120" width="10" height="10" style="fill: rgb(188, 189, 34);"></rect><rect y="135" width="10" height="10" style="fill: rgb(23, 190, 207);"></rect><rect y="150" width="10" height="10" style="fill: rgb(31, 119, 180);"></rect><rect y="165" width="10" height="10" style="fill: rgb(255, 127, 14);"></rect><rect y="180" width="10" height="10" style="fill: rgb(44, 160, 44);"></rect><text font-size="10px" x="13" y="5" text-anchor="left" style="alignment-baseline: middle;">java</text><text font-size="10px" x="13" y="20" text-anchor="left" style="alignment-baseline: middle;">c</text><text font-size="10px" x="13" y="35" text-anchor="left" style="alignment-baseline: middle;">python</text><text font-size="10px" x="13" y="50" text-anchor="left" style="alignment-baseline: middle;">c#</text><text font-size="10px" x="13" y="65" text-anchor="left" style="alignment-baseline: middle;">vb.net</text><text font-size="10px" x="13" y="80" text-anchor="left" style="alignment-baseline: middle;">javascript</text><text font-size="10px" x="13" y="95" text-anchor="left" style="alignment-baseline: middle;">assembly</text><text font-size="10px" x="13" y="110" text-anchor="left" style="alignment-baseline: middle;">php</text><text font-size="10px" x="13" y="125" text-anchor="left" style="alignment-baseline: middle;">perl</text><text font-size="10px" x="13" y="140" text-anchor="left" style="alignment-baseline: middle;">ruby</text><text font-size="10px" x="13" y="155" text-anchor="left" style="alignment-baseline: middle;">swift</text><text font-size="10px" x="13" y="170" text-anchor="left" style="alignment-baseline: middle;">r</text><text font-size="10px" x="13" y="185" text-anchor="left" style="alignment-baseline: middle;">objective-c</text></g></svg>